<?xml version="1.0" encoding="UTF-8"?>
<svg id="Layer_1" xmlns="http://www.w3.org/2000/svg" version="1.1" viewBox="0 0 384 384">
  <!-- Generator: Adobe Illustrator 30.1.0, SVG Export Plug-In . SVG Version: 2.1.1 Build 136)  -->
  <defs>
    <style>
      .st0 {
        fill: #41bcd3;
      }

      .st1 {
        fill: #f7c833;
      }

      .st2 {
        fill: #41bed6;
      }
    </style>
  </defs>
  <path class="st1" d="M210.2,221.8c-4.6,6.3-11.1,10.2-18.4,10.2-6.8-.4-13.6-4.2-17.8-10.6-4.3,6.3-11.7,10.1-19.5,9.8-7-1-13.8-5.2-18.1-12.5-6.2,5.5-12.6,9.6-20.9,8.6-7.3-.2-14.8-3.9-18.2-11.6-2.9-12,7.8-22.5,20.8-23.4,5.4-12.8,15.4-21.8,28-29.3,26.4-13.9,58.8-14.9,86.2-2.8,15.1,6.9,27.2,17.6,34.2,32,12.5,1.7,23,11,20.9,22.9-3.3,7.9-10.5,11.9-17.8,12.3-8.3.7-15.8-2.7-21.6-9-3.4,6.7-9.9,11.4-16.8,12.6-8,1.3-14.9-2.7-20.8-9.2ZM176.5,176.1c-7.3-2.9-16.5,8-16.4,15.6,8.3,0,14.7-7.5,16.4-15.6ZM224.4,191.6c-.3-8-7.8-16.2-16.2-16.9-.7,8,7.8,17.1,16.2,16.9ZM192.9,198.9c4.4-6.5,5.2-17.3-.9-22.5-5.3,5.4-6,18.3.9,22.5Z"/>
  <path class="st1" d="M259,267.9c-3.1,6.5-8.5,8.8-15.3,11.6-32.3,7.9-67.5,7.9-100,.7-8.1-2.9-15-5.7-18.7-13.3l-7.8-33.8c6.8-.8,12.8-2.8,18.4-6.6,10,12,25.9,12.9,37.9,3.3,11,9.5,25.9,10.1,37.1,0,12,10.2,27.8,7.8,38.4-3.3,5.4,4,11.3,6.1,18,6.3l-8,35Z"/>
  <path class="st0" d="M96.8,198.7c-14-.7-28.3-4.9-34.8-17.8,2.6-3.9,7-.6,10.7-3.3-15.4-2.5-28.2-14-28.2-30.3l13.1,1.2c-17.6-9-26.5-30.4-19.8-50,19.9,13.6,38,23.6,58.9,30.2,9.5,4.1,17.3,9.5,22,18.7,3.2,8.4,5.2,17.1,7.1,26.4-4.4,4.1-7.7,8.4-10.5,13.9-7.4,1.4-13.9,5-18.7,11Z"/>
  <path class="st0" d="M287.2,198.7c14-.7,28.3-4.9,34.8-17.8-2.6-3.9-7-.6-10.7-3.3,15.4-2.5,28.2-14,28.2-30.3l-13.1,1.2c17.6-9,26.5-30.4,19.8-50-19.9,13.6-38,23.6-58.9,30.2-9.5,4.1-17.3,9.5-22,18.7-3.2,8.4-5.2,17.1-7.1,26.4,4.4,4.1,7.7,8.4,10.5,13.9,7.4,1.4,13.9,5,18.7,11Z"/>
  <polygon class="st2" points="333.6 164.5 332.9 165.4 332.1 165 333 164.1 333.6 164.5"/>
  <polygon class="st2" points="314.2 178.8 313.7 179.7 312.7 180.1 311.9 179.1 314.2 178.8"/>
  <path class="st2" d="M338.1,155.6h0Z"/>
  <path class="st2" d="M328.4,169.9h0Z"/>
</svg>